<?xml version="1.0" encoding="iso-8859-1"?>
<!-- Generator: Adobe Illustrator 19.0.0, SVG Export Plug-In . SVG Version: 6.00 Build 0)  -->
<svg version="1.1" id="Layer_1" xmlns="http://www.w3.org/2000/svg" xmlns:xlink="http://www.w3.org/1999/xlink" x="0px" y="0px"
	 viewBox="0 0 512 512" style="enable-background:new 0 0 512 512;" xml:space="preserve">
<g transform="translate(1 1)">
	<g>
		<path style="fill:#FFE100;" d="M408.6,502.467H255V7.533h153.6c9.387,0,17.067,7.68,17.067,17.067v460.8
			C425.667,494.787,417.987,502.467,408.6,502.467"/>
		<path style="fill:#FFE100;" d="M408.6,7.533h-17.067c9.387,0,17.067,7.68,17.067,17.067v460.8c0,9.387-7.68,17.067-17.067,17.067
			H408.6c9.387,0,17.067-7.68,17.067-17.067V24.6C425.667,15.213,417.987,7.533,408.6,7.533"/>
		<path style="fill:#FFE100;" d="M255,502.467H101.4c-9.387,0-17.067-7.68-17.067-17.067V24.6c0-9.387,7.68-17.067,17.067-17.067
			H255V502.467z"/>
	</g>
	<g>
		<polygon style="fill:#63D3FD;" points="289.133,109.933 391.533,109.933 391.533,41.667 289.133,41.667 		"/>
		<polygon style="fill:#63D3FD;" points="289.133,340.333 391.533,340.333 391.533,272.067 289.133,272.067 		"/>
	</g>
	<g>
		<polygon style="fill:#3DB9F9;" points="374.467,109.933 391.533,109.933 391.533,41.667 374.467,41.667 		"/>
		<polygon style="fill:#3DB9F9;" points="374.467,340.333 391.533,340.333 391.533,272.067 374.467,272.067 		"/>
	</g>
	<path style="fill:#FFFFFF;" d="M101.4,7.533h17.067c-9.387,0-17.067,7.68-17.067,17.067v460.8c0,9.387,7.68,17.067,17.067,17.067
		H101.4c-9.387,0-17.067-7.68-17.067-17.067V24.6C84.333,15.213,92.013,7.533,101.4,7.533"/>
	<path style="fill:#FFA800;" d="M408.6,7.533h-17.067c9.387,0,17.067,7.68,17.067,17.067v460.8c0,9.387-7.68,17.067-17.067,17.067
		H408.6c9.387,0,17.067-7.68,17.067-17.067V24.6C425.667,15.213,417.987,7.533,408.6,7.533"/>
	<g>
		<polygon style="fill:#00DA6C;" points="289.133,237.933 323.267,237.933 323.267,203.8 289.133,203.8 		"/>
		<polygon style="fill:#00DA6C;" points="357.4,237.933 391.533,237.933 391.533,203.8 357.4,203.8 		"/>
		<polygon style="fill:#00DA6C;" points="289.133,468.333 323.267,468.333 323.267,434.2 289.133,434.2 		"/>
		<polygon style="fill:#00DA6C;" points="357.4,468.333 391.533,468.333 391.533,434.2 357.4,434.2 		"/>
		<polygon style="fill:#00DA6C;" points="118.467,144.067 152.6,144.067 152.6,109.933 118.467,109.933 		"/>
		<polygon style="fill:#00DA6C;" points="186.733,144.067 220.867,144.067 220.867,109.933 186.733,109.933 		"/>
		<polygon style="fill:#00DA6C;" points="118.467,272.067 152.6,272.067 152.6,237.933 118.467,237.933 		"/>
		<polygon style="fill:#00DA6C;" points="186.733,272.067 220.867,272.067 220.867,237.933 186.733,237.933 		"/>
		<polygon style="fill:#00DA6C;" points="118.467,400.067 152.6,400.067 152.6,365.933 118.467,365.933 		"/>
		<polygon style="fill:#00DA6C;" points="186.733,400.067 220.867,400.067 220.867,365.933 186.733,365.933 		"/>
	</g>
	<path d="M408.6,511H255c-5.12,0-8.533-3.413-8.533-8.533V7.533C246.467,2.413,249.88-1,255-1h153.6c14.507,0,25.6,11.947,25.6,25.6
		v460.8C434.2,499.053,422.253,511,408.6,511z M263.533,493.933H408.6c5.12,0,8.533-4.267,8.533-8.533V24.6
		c0-5.12-4.267-8.533-8.533-8.533H263.533V493.933z"/>
	<path d="M391.533,118.467h-102.4c-5.12,0-8.533-3.413-8.533-8.533V41.667c0-5.12,3.413-8.533,8.533-8.533h102.4
		c5.12,0,8.533,3.413,8.533,8.533v68.267C400.067,115.053,396.653,118.467,391.533,118.467z M297.667,101.4H383V50.2h-85.333V101.4z
		"/>
	<path d="M255,511H101.4c-14.507,0-25.6-11.947-25.6-25.6V24.6C75.8,10.093,87.747-1,101.4-1H255c5.12,0,8.533,3.413,8.533,8.533
		v494.933C263.533,507.587,260.12,511,255,511z M101.4,16.067c-4.267,0-8.533,4.267-8.533,8.533v460.8
		c0,5.12,4.267,8.533,8.533,8.533h145.067V16.067H101.4z"/>
	<path d="M289.133,178.2c-5.12,0-8.533-3.413-8.533-8.533v-25.6c0-5.12,3.413-8.533,8.533-8.533c5.12,0,8.533,3.413,8.533,8.533
		v25.6C297.667,174.787,294.253,178.2,289.133,178.2z"/>
	<path d="M391.533,178.2c-5.12,0-8.533-3.413-8.533-8.533v-25.6c0-5.12,3.413-8.533,8.533-8.533s8.533,3.413,8.533,8.533v25.6
		C400.067,174.787,396.653,178.2,391.533,178.2z"/>
	<path d="M357.4,178.2c-5.12,0-8.533-3.413-8.533-8.533v-25.6c0-5.12,3.413-8.533,8.533-8.533s8.533,3.413,8.533,8.533v25.6
		C365.933,174.787,362.52,178.2,357.4,178.2z"/>
	<path d="M323.267,178.2c-5.12,0-8.533-3.413-8.533-8.533v-25.6c0-5.12,3.413-8.533,8.533-8.533c5.12,0,8.533,3.413,8.533,8.533
		v25.6C331.8,174.787,328.387,178.2,323.267,178.2z"/>
	<path d="M323.267,246.467h-34.133c-5.12,0-8.533-3.413-8.533-8.533V203.8c0-5.12,3.413-8.533,8.533-8.533h34.133
		c5.12,0,8.533,3.413,8.533,8.533v34.133C331.8,243.053,328.387,246.467,323.267,246.467z M297.667,229.4h17.067v-17.067h-17.067
		V229.4z"/>
	<path d="M391.533,246.467H357.4c-5.12,0-8.533-3.413-8.533-8.533V203.8c0-5.12,3.413-8.533,8.533-8.533h34.133
		c5.12,0,8.533,3.413,8.533,8.533v34.133C400.067,243.053,396.653,246.467,391.533,246.467z M365.933,229.4H383v-17.067h-17.067
		V229.4z"/>
	<path d="M391.533,348.867h-102.4c-5.12,0-8.533-3.413-8.533-8.533v-68.267c0-5.12,3.413-8.533,8.533-8.533h102.4
		c5.12,0,8.533,3.413,8.533,8.533v68.267C400.067,345.453,396.653,348.867,391.533,348.867z M297.667,331.8H383v-51.2h-85.333V331.8
		z"/>
	<path d="M289.133,408.6c-5.12,0-8.533-3.413-8.533-8.533v-25.6c0-5.12,3.413-8.533,8.533-8.533c5.12,0,8.533,3.413,8.533,8.533
		v25.6C297.667,405.187,294.253,408.6,289.133,408.6z"/>
	<path d="M391.533,408.6c-5.12,0-8.533-3.413-8.533-8.533v-25.6c0-5.12,3.413-8.533,8.533-8.533s8.533,3.413,8.533,8.533v25.6
		C400.067,405.187,396.653,408.6,391.533,408.6z"/>
	<path d="M357.4,408.6c-5.12,0-8.533-3.413-8.533-8.533v-25.6c0-5.12,3.413-8.533,8.533-8.533s8.533,3.413,8.533,8.533v25.6
		C365.933,405.187,362.52,408.6,357.4,408.6z"/>
	<path d="M323.267,408.6c-5.12,0-8.533-3.413-8.533-8.533v-25.6c0-5.12,3.413-8.533,8.533-8.533c5.12,0,8.533,3.413,8.533,8.533
		v25.6C331.8,405.187,328.387,408.6,323.267,408.6z"/>
	<path d="M323.267,476.867h-34.133c-5.12,0-8.533-3.413-8.533-8.533V434.2c0-5.12,3.413-8.533,8.533-8.533h34.133
		c5.12,0,8.533,3.413,8.533,8.533v34.133C331.8,473.453,328.387,476.867,323.267,476.867z M297.667,459.8h17.067v-17.067h-17.067
		V459.8z"/>
	<path d="M391.533,476.867H357.4c-5.12,0-8.533-3.413-8.533-8.533V434.2c0-5.12,3.413-8.533,8.533-8.533h34.133
		c5.12,0,8.533,3.413,8.533,8.533v34.133C400.067,473.453,396.653,476.867,391.533,476.867z M365.933,459.8H383v-17.067h-17.067
		V459.8z"/>
	<path d="M118.467,84.333c-5.12,0-8.533-3.413-8.533-8.533V50.2c0-5.12,3.413-8.533,8.533-8.533c5.12,0,8.533,3.413,8.533,8.533
		v25.6C127,80.92,123.587,84.333,118.467,84.333z"/>
	<path d="M220.867,84.333c-5.12,0-8.533-3.413-8.533-8.533V50.2c0-5.12,3.413-8.533,8.533-8.533c5.12,0,8.533,3.413,8.533,8.533
		v25.6C229.4,80.92,225.987,84.333,220.867,84.333z"/>
	<path d="M186.733,84.333c-5.12,0-8.533-3.413-8.533-8.533V50.2c0-5.12,3.413-8.533,8.533-8.533c5.12,0,8.533,3.413,8.533,8.533
		v25.6C195.267,80.92,191.853,84.333,186.733,84.333z"/>
	<path d="M152.6,84.333c-5.12,0-8.533-3.413-8.533-8.533V50.2c0-5.12,3.413-8.533,8.533-8.533c5.12,0,8.533,3.413,8.533,8.533v25.6
		C161.133,80.92,157.72,84.333,152.6,84.333z"/>
	<path d="M152.6,152.6h-34.133c-5.12,0-8.533-3.413-8.533-8.533v-34.133c0-5.12,3.413-8.533,8.533-8.533H152.6
		c5.12,0,8.533,3.413,8.533,8.533v34.133C161.133,149.187,157.72,152.6,152.6,152.6z M127,135.533h17.067v-17.067H127V135.533z"/>
	<path d="M220.867,152.6h-34.133c-5.12,0-8.533-3.413-8.533-8.533v-34.133c0-5.12,3.413-8.533,8.533-8.533h34.133
		c5.12,0,8.533,3.413,8.533,8.533v34.133C229.4,149.187,225.987,152.6,220.867,152.6z M195.267,135.533h17.067v-17.067h-17.067
		V135.533z"/>
	<path d="M118.467,212.333c-5.12,0-8.533-3.413-8.533-8.533v-25.6c0-5.12,3.413-8.533,8.533-8.533c5.12,0,8.533,3.413,8.533,8.533
		v25.6C127,208.92,123.587,212.333,118.467,212.333z"/>
	<path d="M220.867,212.333c-5.12,0-8.533-3.413-8.533-8.533v-25.6c0-5.12,3.413-8.533,8.533-8.533c5.12,0,8.533,3.413,8.533,8.533
		v25.6C229.4,208.92,225.987,212.333,220.867,212.333z"/>
	<path d="M186.733,212.333c-5.12,0-8.533-3.413-8.533-8.533v-25.6c0-5.12,3.413-8.533,8.533-8.533c5.12,0,8.533,3.413,8.533,8.533
		v25.6C195.267,208.92,191.853,212.333,186.733,212.333z"/>
	<path d="M152.6,212.333c-5.12,0-8.533-3.413-8.533-8.533v-25.6c0-5.12,3.413-8.533,8.533-8.533c5.12,0,8.533,3.413,8.533,8.533
		v25.6C161.133,208.92,157.72,212.333,152.6,212.333z"/>
	<path d="M152.6,280.6h-34.133c-5.12,0-8.533-3.413-8.533-8.533v-34.133c0-5.12,3.413-8.533,8.533-8.533H152.6
		c5.12,0,8.533,3.413,8.533,8.533v34.133C161.133,277.187,157.72,280.6,152.6,280.6z M127,263.533h17.067v-17.067H127V263.533z"/>
	<path d="M220.867,280.6h-34.133c-5.12,0-8.533-3.413-8.533-8.533v-34.133c0-5.12,3.413-8.533,8.533-8.533h34.133
		c5.12,0,8.533,3.413,8.533,8.533v34.133C229.4,277.187,225.987,280.6,220.867,280.6z M195.267,263.533h17.067v-17.067h-17.067
		V263.533z"/>
	<path d="M118.467,340.333c-5.12,0-8.533-3.413-8.533-8.533v-25.6c0-5.12,3.413-8.533,8.533-8.533c5.12,0,8.533,3.413,8.533,8.533
		v25.6C127,336.92,123.587,340.333,118.467,340.333z"/>
	<path d="M220.867,340.333c-5.12,0-8.533-3.413-8.533-8.533v-25.6c0-5.12,3.413-8.533,8.533-8.533c5.12,0,8.533,3.413,8.533,8.533
		v25.6C229.4,336.92,225.987,340.333,220.867,340.333z"/>
	<path d="M186.733,340.333c-5.12,0-8.533-3.413-8.533-8.533v-25.6c0-5.12,3.413-8.533,8.533-8.533c5.12,0,8.533,3.413,8.533,8.533
		v25.6C195.267,336.92,191.853,340.333,186.733,340.333z"/>
	<path d="M152.6,340.333c-5.12,0-8.533-3.413-8.533-8.533v-25.6c0-5.12,3.413-8.533,8.533-8.533c5.12,0,8.533,3.413,8.533,8.533
		v25.6C161.133,336.92,157.72,340.333,152.6,340.333z"/>
	<path d="M152.6,408.6h-34.133c-5.12,0-8.533-3.413-8.533-8.533v-34.133c0-5.12,3.413-8.533,8.533-8.533H152.6
		c5.12,0,8.533,3.413,8.533,8.533v34.133C161.133,405.187,157.72,408.6,152.6,408.6z M127,391.533h17.067v-17.067H127V391.533z"/>
	<path d="M220.867,408.6h-34.133c-5.12,0-8.533-3.413-8.533-8.533v-34.133c0-5.12,3.413-8.533,8.533-8.533h34.133
		c5.12,0,8.533,3.413,8.533,8.533v34.133C229.4,405.187,225.987,408.6,220.867,408.6z M195.267,391.533h17.067v-17.067h-17.067
		V391.533z"/>
	<path d="M118.467,468.333c-5.12,0-8.533-3.413-8.533-8.533v-25.6c0-5.12,3.413-8.533,8.533-8.533c5.12,0,8.533,3.413,8.533,8.533
		v25.6C127,464.92,123.587,468.333,118.467,468.333z"/>
	<path d="M220.867,468.333c-5.12,0-8.533-3.413-8.533-8.533v-25.6c0-5.12,3.413-8.533,8.533-8.533c5.12,0,8.533,3.413,8.533,8.533
		v25.6C229.4,464.92,225.987,468.333,220.867,468.333z"/>
	<path d="M186.733,468.333c-5.12,0-8.533-3.413-8.533-8.533v-25.6c0-5.12,3.413-8.533,8.533-8.533c5.12,0,8.533,3.413,8.533,8.533
		v25.6C195.267,464.92,191.853,468.333,186.733,468.333z"/>
	<path d="M152.6,468.333c-5.12,0-8.533-3.413-8.533-8.533v-25.6c0-5.12,3.413-8.533,8.533-8.533c5.12,0,8.533,3.413,8.533,8.533
		v25.6C161.133,464.92,157.72,468.333,152.6,468.333z"/>
</g>
<g>
</g>
<g>
</g>
<g>
</g>
<g>
</g>
<g>
</g>
<g>
</g>
<g>
</g>
<g>
</g>
<g>
</g>
<g>
</g>
<g>
</g>
<g>
</g>
<g>
</g>
<g>
</g>
<g>
</g>
</svg>
